<?xml version="1.0" standalone="no"?>
<!DOCTYPE svg PUBLIC "-//W3C//DTD SVG 20010904//EN"
 "http://www.w3.org/TR/2001/REC-SVG-20010904/DTD/svg10.dtd">
<svg version="1.0" xmlns="http://www.w3.org/2000/svg"
 width="300.000000pt" height="91.000000pt" viewBox="0 0 300.000000 91.000000"
 preserveAspectRatio="xMidYMid meet">

<g transform="translate(0.000000,91.000000) scale(0.100000,-0.100000)"
fill="#000000" stroke="none">
<path d="M454 823 c-53 -10 -103 -111 -78 -156 41 -71 408 -422 452 -432 52
-11 98 24 298 227 197 198 215 225 199 280 -4 13 -19 35 -33 51 -21 22 -34 27
-74 27 l-48 0 -151 -150 c-86 -85 -159 -150 -169 -150 -11 0 -81 62 -162 141
-118 117 -192 176 -210 168 -2 -1 -13 -4 -24 -6z"/>
<path d="M1484 771 c-38 -16 -64 -60 -64 -107 0 -60 14 -91 52 -114 60 -36
133 -18 164 42 24 45 14 122 -18 155 -28 28 -97 40 -134 24z m96 -51 c14 -14
20 -33 20 -62 0 -97 -104 -123 -129 -32 -23 84 53 150 109 94z"/>
<path d="M1693 764 c-2 -5 -2 -59 -1 -120 l3 -109 60 -3 c80 -3 129 20 133 64
2 19 -3 38 -14 48 -14 14 -14 21 -4 46 10 25 10 34 -4 54 -14 22 -24 25 -92
28 -48 2 -78 -1 -81 -8z m121 -30 c9 -3 16 -14 16 -24 0 -21 -19 -30 -61 -30
-26 0 -29 4 -29 30 0 26 3 30 29 30 16 0 36 -3 45 -6z m10 -100 c23 -9 20 -41
-4 -54 -12 -6 -33 -10 -48 -8 -22 2 -28 9 -30 36 -3 31 -2 32 32 32 19 0 41
-3 50 -6z"/>
<path d="M2492 770 c-29 -12 -46 -54 -32 -81 12 -21 49 -42 93 -53 33 -8 44
-30 27 -51 -19 -23 -56 -18 -78 10 -33 42 -64 29 -46 -20 9 -22 57 -45 97 -45
43 0 87 38 87 75 0 34 -39 72 -84 80 -38 8 -62 28 -51 45 9 15 61 12 75 -5 15
-18 50 -20 50 -2 -1 45 -77 71 -138 47z"/>
<path d="M1932 653 c3 -110 4 -118 23 -118 19 0 20 8 23 118 l3 117 -26 0 -26
0 3 -117z"/>
<path d="M2032 653 l3 -118 80 0 c72 1 80 3 80 20 0 17 -7 19 -57 16 -54 -2
-58 -1 -64 23 -3 14 -4 60 -2 101 3 73 3 75 -20 75 -22 0 -23 -1 -20 -117z"/>
<path d="M2232 653 l3 -118 87 0 c81 0 88 2 88 20 0 18 -7 20 -62 20 l-63 0
-3 33 -3 32 60 0 c54 0 61 2 61 20 0 16 -8 19 -57 22 -54 3 -58 5 -58 28 0 24
3 25 63 28 46 2 62 7 62 17 0 12 -18 15 -90 15 l-91 0 3 -117z"/>
<path d="M1824 516 c-45 -20 -64 -52 -64 -109 0 -89 49 -135 133 -124 77 10
115 88 83 170 -9 23 -24 47 -35 54 -31 20 -84 24 -117 9z m95 -52 c44 -56 15
-144 -48 -144 -54 0 -86 71 -57 128 26 49 73 57 105 16z"/>
<path d="M1540 399 c0 -119 0 -120 23 -117 18 2 23 10 25 44 3 41 3 42 48 47
59 6 84 30 84 77 0 56 -22 70 -108 70 l-72 0 0 -121z m121 72 c23 -19 24 -19
5 -40 -11 -12 -31 -21 -48 -21 -25 0 -28 3 -28 33 0 19 3 37 7 40 12 13 41 7
64 -12z"/>
<path d="M2030 400 c0 -113 1 -120 20 -120 19 0 20 7 20 120 0 113 -1 120 -20
120 -19 0 -20 -7 -20 -120z"/>
<path d="M2124 507 c-2 -7 -3 -60 -2 -118 3 -96 4 -104 23 -104 18 0 21 8 25
70 l5 70 30 -49 c47 -76 65 -96 86 -96 18 0 19 8 19 120 0 113 -1 120 -20 120
-18 0 -20 -7 -20 -70 0 -38 -3 -70 -7 -70 -5 0 -28 32 -52 70 -42 69 -74 89
-87 57z"/>
<path d="M2350 506 c0 -9 12 -16 33 -18 l32 -3 3 -103 c3 -100 3 -103 25 -100
21 3 22 9 27 103 l5 100 33 3 c20 2 32 9 32 18 0 11 -19 14 -95 14 -76 0 -95
-3 -95 -14z"/>
<path d="M1162 280 c-62 -38 -70 -114 -18 -166 27 -27 42 -34 74 -34 110 0
151 144 58 201 -40 24 -73 24 -114 -1z"/>
</g>
</svg>
